# xmcd
#
# Track frame offsets:
#	150
#	12403
#	26193
#	37142
#	47682
#	57505
#	67549
#	78199
#	88756
#	101066
#	111459
#	122578
#	135638
#	145463
#	156312
#	166114
#	178736
#	190093
#	201128
#	211430
#	221560
#	231926
#	242434
#	254037
#	263423
#	271414
#
# Disc length: 3725 seconds
# Revision: 2
# Processed by: cddbd v1.5.2PL0 Copyright (c) Steve Scherf et al.
# Submitted via: dBpowerAMP V12.0
#
DISCID=7e0e8b1a
DTITLE=The Lonesome Pine Fiddlers - Windy Mountain
DYEAR=1992
DGENRE=Country
TTITLE0=Pain in My Heart
TTITLE1=Lonesome, Sad and Blue
TTITLE2=Don't Forget Me
TTITLE3=Will I Meet Mother in Heaven
TTITLE4=You Broke Your Promise
TTITLE5=I'm Left All Alone
TTITLE6=Nobody Cares (Not Even You)
TTITLE7=Twenty One Years
TTITLE8=My Brown Eyed Darling
TTITLE9=You Left Me to Cry
TTITLE10=That's Why You Left Me So Blue
TTITLE11=I'll Never Make You Blue
TTITLE12=Honky Tonk Blues
TTITLE13=You're No Good
TTITLE14=I'll Never Change My Mind
TTITLE15=Dirty Dishes Blues
TTITLE16=Lonesome Pine Breakdown
TTITLE17=Five String Drag
TTITLE18=Don't Forget Me
TTITLE19=Baby, You're Cheatin'
TTITLE20=I'm Feeling for You (But I Can't Reach You)
TTITLE21=Some Kinda Sorry
TTITLE22=Windy Mountain
TTITLE23=No Curb Service
TTITLE24=A New Set of Rules
TTITLE25=There's Just One You
EXTD=
EXTT0=
EXTT1=
EXTT2=
EXTT3=
EXTT4=
EXTT5=
EXTT6=
EXTT7=
EXTT8=
EXTT9=
EXTT10=
EXTT11=
EXTT12=
EXTT13=
EXTT14=
EXTT15=
EXTT16=
EXTT17=
EXTT18=
EXTT19=
EXTT20=
EXTT21=
EXTT22=
EXTT23=
EXTT24=
EXTT25=
PLAYORDER=
